#Comment line ignore any data following # character 
#Hierarchical Translation and Rotation (.htr) file 
[Header]	
#Header keywords are followed by a single value 
FileType HTR		#Single word string
DataType HTRS		#Translation followed by rotation and scale data
FileVersion 1		#integer
NumSegments 84		#integer
NumFrames 2		#integer
DataFrameRate 30		#integer, data frame rate in this file
EulerRotationOrder ZYX
CalibrationUnits mm
RotationUnits Degrees
GlobalAxisofGravity Y
BoneLengthAxis Y
ScaleFactor 1.00
[SegmentNames&Hierarchy]
#CHILD	PARENT
MASTER GLOBAL
root MASTER
chest root
L_mid_tent01 root
R_mid_tent01 root
spine01 root
Bip01_Neck chest
L_humerus chest
R_humerus chest
weapon_bone chest
Bip01_Head Bip01_Neck
eye_left_bone Bip01_Head
eye_right_bone Bip01_Head
L_forearm L_humerus
L_front_hand L_forearm
L_weapon_bone L_forearm
L_front_hand01_01 L_front_hand
L_front_hand02_01 L_front_hand
L_front_hand03_01 L_front_hand
L_front_hand01_02 L_front_hand01_01
L_front_hand02_02 L_front_hand02_01
L_front_hand03_02 L_front_hand03_01
R_forearm R_humerus
R_front_hand R_forearm
R_weapon_bone R_forearm
R_front_hand01_01 R_front_hand
R_front_hand02_01 R_front_hand
R_front_hand03_01 R_front_hand
R_front_hand01_02 R_front_hand01_01
R_front_hand02_02 R_front_hand02_01
R_front_hand03_02 R_front_hand03_01
null_rope01_connect L_mid_tent01
Rope1_Seg01 null_rope01_connect
Rope1_Seg02 Rope1_Seg01
Rope1_Seg03 Rope1_Seg02
Rope1_Seg04 Rope1_Seg03
Rope1_Seg05 Rope1_Seg04
Rope1_Seg06 Rope1_Seg05
Rope1_Seg07 Rope1_Seg06
Rope1_Seg09 Rope1_Seg07
L_mid_hand01 Rope1_Seg09
L_mid_hand02 Rope1_Seg09
L_mid_hand03 Rope1_Seg09
null_rope02_connect R_mid_tent01
Rope2_Seg01 null_rope02_connect
Rope2_Seg02 Rope2_Seg01
Rope2_Seg03 Rope2_Seg02
Rope2_Seg04 Rope2_Seg03
Rope2_Seg05 Rope2_Seg04
Rope2_Seg06 Rope2_Seg05
Rope2_Seg07 Rope2_Seg06
Rope2_Seg09 Rope2_Seg07
R_mid_hand01 Rope2_Seg09
R_mid_hand02 Rope2_Seg09
R_mid_hand03 Rope2_Seg09
spine02 spine01
spine03 spine02
pelvis spine03
null_rope03_connect pelvis
null_rope04_connect pelvis
Rope3_Seg01 null_rope03_connect
Rope3_Seg02 Rope3_Seg01
Rope3_Seg03 Rope3_Seg02
Rope3_Seg04 Rope3_Seg03
Rope3_Seg05 Rope3_Seg04
Rope3_Seg06 Rope3_Seg05
Rope3_Seg07 Rope3_Seg06
Rope3_Seg08 Rope3_Seg07
Rope3_Seg09 Rope3_Seg08
R_rear_hand01 Rope3_Seg09
R_rear_hand02 Rope3_Seg09
R_rear_hand03 Rope3_Seg09
Rope4_Seg01 null_rope04_connect
Rope4_Seg02 Rope4_Seg01
Rope4_Seg03 Rope4_Seg02
Rope4_Seg04 Rope4_Seg03
Rope4_Seg05 Rope4_Seg04
Rope4_Seg06 Rope4_Seg05
Rope4_Seg07 Rope4_Seg06
Rope4_Seg08 Rope4_Seg07
Rope4_Seg09 Rope4_Seg08
L_rear_hand01 Rope4_Seg09
L_rear_hand02 Rope4_Seg09
L_rear_hand03 Rope4_Seg09
[BasePosition]
#SegmentName Tx, Ty, Tz, Rx, Ry, Rz, BoneLength
MASTER 0.000000 0.000000 0.000000 -90.000000 0.000000 0.000000 10.000000 
root 0.000000 0.000000 0.000000 0.000000 0.000000 0.000000 10.000000 
chest 0.000000 0.000000 0.000000 0.000000 0.000000 0.000000 10.000000 
L_mid_tent01 0.000000 0.000000 0.000000 0.000000 0.000000 0.000000 10.000000 
R_mid_tent01 0.000000 0.000000 0.000000 0.000000 0.000000 0.000000 10.000000 
spine01 0.000000 0.000000 0.000000 0.000000 0.000000 0.000000 10.000000 
Bip01_Neck 0.000000 0.000000 0.000000 0.000000 0.000000 0.000000 10.000000 
L_humerus 0.000000 0.000000 0.000000 0.000000 0.000000 0.000000 10.000000 
R_humerus 0.000000 0.000000 0.000000 0.000000 0.000000 0.000000 10.000000 
weapon_bone 0.000000 0.000000 0.000000 0.000000 0.000000 0.000000 10.000000 
Bip01_Head 0.000000 0.000000 0.000000 0.000000 0.000000 0.000000 10.000000 
eye_left_bone 0.000000 0.000000 0.000000 0.000000 0.000000 0.000000 10.000000 
eye_right_bone 0.000000 0.000000 0.000000 0.000000 0.000000 0.000000 10.000000 
L_forearm 0.000000 0.000000 0.000000 0.000000 0.000000 0.000000 10.000000 
L_front_hand 0.000000 0.000000 0.000000 0.000000 0.000000 0.000000 10.000000 
L_weapon_bone 0.000000 0.000000 0.000000 0.000000 0.000000 0.000000 10.000000 
L_front_hand01_01 0.000000 0.000000 0.000000 0.000000 0.000000 0.000000 10.000000 
L_front_hand02_01 0.000000 0.000000 0.000000 0.000000 0.000000 0.000000 10.000000 
L_front_hand03_01 0.000000 0.000000 0.000000 0.000000 0.000000 0.000000 10.000000 
L_front_hand01_02 0.000000 0.000000 0.000000 0.000000 0.000000 0.000000 10.000000 
L_front_hand02_02 0.000000 0.000000 0.000000 0.000000 0.000000 0.000000 10.000000 
L_front_hand03_02 0.000000 0.000000 0.000000 0.000000 0.000000 0.000000 10.000000 
R_forearm 0.000000 0.000000 0.000000 0.000000 0.000000 0.000000 10.000000 
R_front_hand 0.000000 0.000000 0.000000 0.000000 0.000000 0.000000 10.000000 
R_weapon_bone 0.000000 0.000000 0.000000 0.000000 0.000000 0.000000 10.000000 
R_front_hand01_01 0.000000 0.000000 0.000000 0.000000 0.000000 0.000000 10.000000 
R_front_hand02_01 0.000000 0.000000 0.000000 0.000000 0.000000 0.000000 10.000000 
R_front_hand03_01 0.000000 0.000000 0.000000 0.000000 0.000000 0.000000 10.000000 
R_front_hand01_02 0.000000 0.000000 0.000000 0.000000 0.000000 0.000000 10.000000 
R_front_hand02_02 0.000000 0.000000 0.000000 0.000000 0.000000 0.000000 10.000000 
R_front_hand03_02 0.000000 0.000000 0.000000 0.000000 0.000000 0.000000 10.000000 
null_rope01_connect 0.000000 0.000000 0.000000 0.000000 0.000000 0.000000 10.000000 
Rope1_Seg01 0.000000 0.000000 0.000000 0.000000 0.000000 0.000000 10.000000 
Rope1_Seg02 0.000000 0.000000 0.000000 0.000000 0.000000 0.000000 10.000000 
Rope1_Seg03 0.000000 0.000000 0.000000 0.000000 0.000000 0.000000 10.000000 
Rope1_Seg04 0.000000 0.000000 0.000000 0.000000 0.000000 0.000000 10.000000 
Rope1_Seg05 0.000000 0.000000 0.000000 0.000000 0.000000 0.000000 10.000000 
Rope1_Seg06 0.000000 0.000000 0.000000 0.000000 0.000000 0.000000 10.000000 
Rope1_Seg07 0.000000 0.000000 0.000000 0.000000 0.000000 0.000000 10.000000 
Rope1_Seg09 0.000000 0.000000 0.000000 0.000000 0.000000 0.000000 10.000000 
L_mid_hand01 0.000000 0.000000 0.000000 0.000000 0.000000 0.000000 10.000000 
L_mid_hand02 0.000000 0.000000 0.000000 0.000000 0.000000 0.000000 10.000000 
L_mid_hand03 0.000000 0.000000 0.000000 0.000000 0.000000 0.000000 10.000000 
null_rope02_connect 0.000000 0.000000 0.000000 0.000000 0.000000 0.000000 10.000000 
Rope2_Seg01 0.000000 0.000000 0.000000 0.000000 0.000000 0.000000 10.000000 
Rope2_Seg02 0.000000 0.000000 0.000000 0.000000 0.000000 0.000000 10.000000 
Rope2_Seg03 0.000000 0.000000 0.000000 0.000000 0.000000 0.000000 10.000000 
Rope2_Seg04 0.000000 0.000000 0.000000 0.000000 0.000000 0.000000 10.000000 
Rope2_Seg05 0.000000 0.000000 0.000000 0.000000 0.000000 0.000000 10.000000 
Rope2_Seg06 0.000000 0.000000 0.000000 0.000000 0.000000 0.000000 10.000000 
Rope2_Seg07 0.000000 0.000000 0.000000 0.000000 0.000000 0.000000 10.000000 
Rope2_Seg09 0.000000 0.000000 0.000000 0.000000 0.000000 0.000000 10.000000 
R_mid_hand01 0.000000 0.000000 0.000000 0.000000 0.000000 0.000000 10.000000 
R_mid_hand02 0.000000 0.000000 0.000000 0.000000 0.000000 0.000000 10.000000 
R_mid_hand03 0.000000 0.000000 0.000000 0.000000 0.000000 0.000000 10.000000 
spine02 0.000000 0.000000 0.000000 0.000000 0.000000 0.000000 10.000000 
spine03 0.000000 0.000000 0.000000 0.000000 0.000000 0.000000 10.000000 
pelvis 0.000000 0.000000 0.000000 0.000000 0.000000 0.000000 10.000000 
null_rope03_connect 0.000000 0.000000 0.000000 0.000000 0.000000 0.000000 10.000000 
null_rope04_connect 0.000000 0.000000 0.000000 0.000000 0.000000 0.000000 10.000000 
Rope3_Seg01 0.000000 0.000000 0.000000 0.000000 0.000000 0.000000 10.000000 
Rope3_Seg02 0.000000 0.000000 0.000000 0.000000 0.000000 0.000000 10.000000 
Rope3_Seg03 0.000000 0.000000 0.000000 0.000000 0.000000 0.000000 10.000000 
Rope3_Seg04 0.000000 0.000000 0.000000 0.000000 0.000000 0.000000 10.000000 
Rope3_Seg05 0.000000 0.000000 0.000000 0.000000 0.000000 0.000000 10.000000 
Rope3_Seg06 0.000000 0.000000 0.000000 0.000000 0.000000 0.000000 10.000000 
Rope3_Seg07 0.000000 0.000000 0.000000 0.000000 0.000000 0.000000 10.000000 
Rope3_Seg08 0.000000 0.000000 0.000000 0.000000 0.000000 0.000000 10.000000 
Rope3_Seg09 0.000000 0.000000 0.000000 0.000000 0.000000 0.000000 10.000000 
R_rear_hand01 0.000000 0.000000 0.000000 0.000000 0.000000 0.000000 10.000000 
R_rear_hand02 0.000000 0.000000 0.000000 0.000000 0.000000 0.000000 10.000000 
R_rear_hand03 0.000000 0.000000 0.000000 0.000000 0.000000 0.000000 10.000000 
Rope4_Seg01 0.000000 0.000000 0.000000 0.000000 0.000000 0.000000 10.000000 
Rope4_Seg02 0.000000 0.000000 0.000000 0.000000 0.000000 0.000000 10.000000 
Rope4_Seg03 0.000000 0.000000 0.000000 0.000000 0.000000 0.000000 10.000000 
Rope4_Seg04 0.000000 0.000000 0.000000 0.000000 0.000000 0.000000 10.000000 
Rope4_Seg05 0.000000 0.000000 0.000000 0.000000 0.000000 0.000000 10.000000 
Rope4_Seg06 0.000000 0.000000 0.000000 0.000000 0.000000 0.000000 10.000000 
Rope4_Seg07 0.000000 0.000000 0.000000 0.000000 0.000000 0.000000 10.000000 
Rope4_Seg08 0.000000 0.000000 0.000000 0.000000 0.000000 0.000000 10.000000 
Rope4_Seg09 0.000000 0.000000 0.000000 0.000000 0.000000 0.000000 10.000000 
L_rear_hand01 0.000000 0.000000 0.000000 0.000000 0.000000 0.000000 10.000000 
L_rear_hand02 0.000000 0.000000 0.000000 0.000000 0.000000 0.000000 10.000000 
L_rear_hand03 0.000000 0.000000 0.000000 0.000000 0.000000 0.000000 10.000000 
#Beginning of Data. Separated by tabs
#Fr	Tx	Ty	Tz	Rx	Ry	Rz	SF
[MASTER]
36 -2698.379883 2565.553955 1515.048218 0.001660 0.001660 0.001660 4019.787598
37 -2544.537842 2718.912598 1455.649536 0.001660 0.001660 0.001660 3998.258789
[root]
36 20.012537 -118.897102 462.015564 -168.664780 -12.216843 -68.921738 477.488647
37 -56.744167 -119.632881 490.763611 -169.917114 -11.844595 -68.871902 508.311737
[chest]
36 -84.512650 -34.090519 0.000000 -52.543613 -29.108027 -171.005066 91.129311
37 -84.512650 -34.090519 0.000000 -59.010921 -29.798449 -167.733856 91.129311
[L_mid_tent01]
36 27.298958 22.179008 -249.918777 -4.693631 14.809361 60.003979 252.381729
37 27.298956 22.179008 -249.918777 -4.255209 14.769000 61.552490 252.381729
[R_mid_tent01]
36 23.228794 24.509907 226.238495 176.771393 -17.160923 35.364754 228.744751
37 23.228794 24.509907 226.238495 174.566391 -14.496490 39.254124 228.744751
[spine01]
36 -0.361383 -0.195265 0.000000 0.001953 0.001302 22.609129 0.410763
37 -0.361383 -0.195265 0.000000 0.001952 0.001303 22.570730 0.410763
[Bip01_Neck]
36 165.484543 71.581718 0.000119 176.643677 -1.657967 43.431911 180.302734
37 165.484543 71.581718 0.000119 176.643677 -1.657967 43.431911 180.302734
[L_humerus]
36 -13.983130 -135.272980 -120.471481 161.466171 61.454212 -106.384476 181.680161
37 -13.983130 -135.272980 -120.471481 161.235229 61.559170 -106.627441 181.680161
[R_humerus]
36 -13.983309 -135.273102 125.287651 -141.415649 -45.315693 -135.645004 184.909012
37 -13.983309 -135.273102 125.287651 -142.575546 -46.581356 -133.622650 184.909012
[weapon_bone]
36 235.964890 -300.705902 0.000000 0.000000 -89.951546 -128.212341 382.234833
37 235.964890 -300.705902 0.000000 0.000000 -89.951546 -128.212341 382.234833
[Bip01_Head]
36 213.332672 186.025986 7.769469 2.432489 6.015637 -43.834415 283.155182
37 213.329834 186.034164 7.664337 3.738971 6.115751 -43.832184 283.155548
[eye_left_bone]
36 -24.626970 125.451866 -64.772606 0.000000 -90.000000 -99.840431 143.318359
37 -24.626970 125.451866 -64.772606 0.000000 -90.000000 -99.840431 143.318359
[eye_right_bone]
36 -24.626970 125.451866 64.327362 0.000000 -89.965736 80.156380 143.117676
37 -24.626970 125.451866 64.327362 0.000000 -89.965736 80.156380 143.117676
[L_forearm]
36 322.776093 0.000000 -0.000119 0.000259 -0.002333 -102.672676 322.776093
37 322.776093 0.000000 -0.000119 0.000266 -0.002332 -103.032310 322.776093
[L_front_hand]
36 241.149185 -0.042021 -3.300071 -105.490540 -1.835781 -27.423632 241.171753
37 241.149185 -0.042021 -3.300071 -105.490540 -1.835781 -27.423635 241.171753
[L_weapon_bone]
36 156.183838 0.000000 0.000000 0.000014 0.000007 0.000001 156.183838
37 156.183838 0.000000 0.000000 0.000014 0.000007 0.000001 156.183838
[L_front_hand01_01]
36 86.095154 20.947098 -0.655860 -0.366594 -0.477154 75.385574 88.609184
37 86.095154 20.947098 -0.655860 -0.366594 -0.477154 75.385574 88.609184
[L_front_hand02_01]
36 86.935165 -11.437475 24.513514 154.399796 -59.883835 -61.369587 91.046425
37 86.935165 -11.437475 24.513514 154.399796 -59.883835 -61.369587 91.046425
[L_front_hand03_01]
36 86.637497 -14.123976 -20.424902 -153.913849 58.118122 -62.702866 90.126129
37 86.637497 -14.123976 -20.424902 -153.913849 58.118122 -62.702866 90.126129
[L_front_hand01_02]
36 71.020905 -0.000179 0.000030 0.000334 -0.002323 -106.379684 71.020905
37 71.020905 -0.000179 0.000030 0.000334 -0.002323 -106.379684 71.020905
[L_front_hand02_02]
36 71.020927 -0.000119 0.000060 0.000334 -0.002323 -106.379684 71.020927
37 71.020927 -0.000119 0.000060 0.000334 -0.002323 -106.379684 71.020927
[L_front_hand03_02]
36 71.020905 -0.000060 0.000060 0.000334 -0.002323 -106.379684 71.020905
37 71.020905 -0.000060 0.000060 0.000334 -0.002323 -106.379684 71.020905
[R_forearm]
36 322.776428 -0.000060 0.000030 0.208520 0.037886 -101.265091 322.776428
37 322.776428 -0.000060 0.000030 0.207631 0.039167 -101.625092 322.776428
[R_front_hand]
36 238.847015 -0.006795 2.210259 15.488861 -10.646104 -26.316048 238.857239
37 238.847015 -0.006795 2.210259 15.488859 -10.646104 -26.316046 238.857239
[R_weapon_bone]
36 155.664093 0.002503 -0.000030 0.003487 0.001180 -90.988930 155.664078
37 155.664093 0.002503 -0.000030 0.003487 0.001180 -90.988930 155.664078
[R_front_hand01_01]
36 87.624611 14.231146 22.918642 -154.633499 -59.950619 61.746044 91.683487
37 87.624611 14.231146 22.918642 -154.633499 -59.950619 61.746044 91.683487
[R_front_hand02_01]
36 89.356956 14.367283 -19.491137 154.602661 58.302849 63.744389 92.579636
37 89.356956 14.367283 -19.491137 154.602661 58.302849 63.744389 92.579636
[R_front_hand03_01]
36 87.286232 -22.307278 -0.143439 0.162155 -0.423168 -75.767921 90.091743
37 87.286232 -22.307278 -0.143439 0.162155 -0.423168 -75.767921 90.091743
[R_front_hand01_02]
36 71.020905 0.000060 0.000119 0.001777 0.001534 8.377551 71.020905
37 71.020905 0.000060 0.000119 0.002476 0.000724 57.379662 71.020905
[R_front_hand02_02]
36 71.020844 -0.000030 -0.000119 0.001777 0.001534 8.377551 71.020836
37 71.020844 -0.000030 -0.000119 0.002476 0.000724 57.379662 71.020836
[R_front_hand03_02]
36 71.020905 0.000000 0.000030 0.001777 0.001534 8.377551 71.020905
37 71.020905 0.000000 0.000030 0.002476 0.000724 57.379662 71.020905
[null_rope01_connect]
36 328.732483 0.000000 -0.000238 -164.189987 -1.894477 -130.538727 328.732483
37 328.732483 0.000000 -0.000238 -164.190445 -0.748846 -131.872574 328.732483
[Rope1_Seg01]
36 -0.000024 -0.000014 0.000153 18.365904 -65.751907 93.044357 0.000155
37 -0.000025 -0.000013 0.000153 6.481301 -72.906998 105.632896 0.000155
[Rope1_Seg02]
36 139.999863 -0.000179 0.000000 0.475548 3.797234 3.689806 139.999863
37 139.999863 -0.000179 0.000000 1.553628 4.026100 4.833634 139.999863
[Rope1_Seg03]
36 139.999924 0.000060 -0.000060 0.958461 6.323335 6.090652 139.999924
37 139.999924 0.000060 -0.000060 3.025851 6.980297 8.033731 139.999924
[Rope1_Seg04]
36 139.999924 -0.000060 -0.000119 3.525964 14.924603 14.657305 139.999924
37 139.999924 -0.000060 -0.000119 9.403813 17.088415 18.871355 139.999924
[Rope1_Seg05]
36 139.999832 0.000119 -0.000060 5.749024 20.796455 19.624899 139.999832
37 139.999832 0.000119 -0.000060 8.374681 18.265787 15.772122 139.999832
[Rope1_Seg06]
36 139.999954 0.000119 -0.000060 0.099269 2.167821 0.191505 139.999954
37 139.999954 0.000119 -0.000060 -0.044416 0.288270 -0.621612 139.999954
[Rope1_Seg07]
36 139.999985 0.000060 0.000000 0.503693 7.154227 4.142043 139.999985
37 139.999985 0.000060 0.000000 1.665364 6.770848 3.737659 139.999985
[Rope1_Seg09]
36 121.602913 0.000119 -0.000089 -89.793175 -1.359789 0.847147 121.602913
37 121.602913 0.000119 -0.000089 -89.793175 -1.359789 0.847147 121.602913
[L_mid_hand01]
36 103.859421 1.038730 8.195221 130.544373 -67.584534 -38.866943 104.187431
37 103.859421 1.038730 8.195221 130.544373 -67.584534 -38.866947 104.187431
[L_mid_hand02]
36 105.572853 -4.139662 -10.864139 -168.923172 43.409321 -73.498909 106.211075
37 105.572853 -4.139662 -10.864139 -168.923172 43.409309 -73.498886 106.211075
[L_mid_hand03]
36 104.641464 17.579376 -3.913581 -6.012629 17.808178 74.893669 106.179977
37 104.641464 17.579376 -3.913581 -6.012628 17.808178 74.893669 106.179977
[null_rope02_connect]
36 328.732849 0.000179 -0.000119 -10.770210 15.203697 98.801361 328.732849
37 328.732849 0.000179 -0.000119 -8.407562 12.400750 103.681290 328.732849
[Rope2_Seg01]
36 0.000062 0.000236 0.000097 175.053650 78.112617 110.749405 0.000263
37 0.000063 0.000239 0.000100 -148.697128 59.749321 142.332123 0.000267
[Rope2_Seg02]
36 139.999741 -0.000060 -0.000119 -0.696901 9.138983 -3.522676 139.999756
37 139.999741 -0.000060 -0.000119 2.510581 0.827182 -2.671626 139.999756
[Rope2_Seg03]
36 140.000107 0.000030 0.000000 -4.031997 12.577855 -2.006234 140.000107
37 140.000107 0.000030 0.000000 4.821425 1.193941 -4.548164 140.000107
[Rope2_Seg04]
36 139.999802 0.000000 -0.000060 -8.762791 23.541962 -9.168427 139.999802
37 139.999802 0.000000 -0.000060 11.146876 -4.298122 -7.274327 139.999802
[Rope2_Seg05]
36 139.999985 -0.000060 0.000119 156.475098 26.935184 -21.006357 139.999985
37 139.999985 -0.000060 0.000119 66.405609 16.421577 -38.674431 139.999985
[Rope2_Seg06]
36 139.999893 -0.000030 -0.000119 2.837649 -9.731045 2.500947 139.999893
37 139.999893 -0.000030 -0.000119 29.882891 -11.435832 -14.804992 139.999893
[Rope2_Seg07]
36 139.999893 0.000060 -0.000060 0.864440 -4.569935 1.328359 139.999893
37 139.999893 0.000060 -0.000060 5.395581 -6.041370 -2.023663 139.999893
[Rope2_Seg09]
36 121.338966 0.000089 -0.000060 33.793236 -1.359788 -0.847141 121.338966
37 121.338966 0.000089 -0.000060 33.793236 -1.359788 -0.847141 121.338966
[R_mid_hand01]
36 104.680779 11.144459 -10.335981 -16.212063 45.237247 70.462852 105.778534
37 104.680779 11.144459 -10.335981 -16.212063 45.237247 70.462852 105.778534
[R_mid_hand02]
36 104.070427 2.443552 8.231699 49.067368 -67.749771 39.286453 104.424065
37 104.070427 2.443552 8.231699 49.067368 -67.749771 39.286453 104.424065
[R_mid_hand03]
36 106.028137 -11.221827 -5.996406 -177.101105 15.551026 -76.585571 106.788818
37 106.028137 -11.221827 -5.996406 -177.101105 15.551026 -76.585571 106.788818
[spine02]
36 129.756927 0.001550 0.000119 -0.331122 -4.048118 -3.155607 129.756927
37 129.756927 0.001550 0.000119 -0.294287 -4.051316 -3.670471 129.756927
[spine03]
36 78.613945 0.081690 -4.898966 1.479514 4.011580 10.404662 78.766479
37 78.613945 0.081687 -4.898965 1.501817 4.003530 10.727695 78.766479
[pelvis]
36 169.435242 0.051022 0.000000 -0.018638 -0.190969 1.792227 169.435257
37 169.435242 0.051022 0.000000 -0.020962 -0.190830 2.445176 169.435257
[null_rope03_connect]
36 -1.257226 -2.466202 137.391083 -172.730957 -15.369977 -100.241310 137.418976
37 -1.257226 -2.466202 137.391083 -172.632996 -14.119388 -100.709702 137.418976
[null_rope04_connect]
36 -1.259640 -2.480268 -137.844437 -172.730957 -15.369977 -100.241310 137.872513
37 -1.259640 -2.480268 -137.844437 -172.632996 -14.119388 -100.709702 137.872513
[Rope3_Seg01]
36 0.000000 0.000000 0.000000 34.513821 28.657368 -42.914921 0.000000
37 0.000000 0.000000 0.000000 31.639376 28.251162 -48.356586 0.000000
[Rope3_Seg02]
36 139.999924 -0.000119 0.000060 6.995277 4.375170 -17.147694 139.999924
37 139.999924 -0.000119 0.000060 6.149967 3.297021 -30.002094 139.999924
[Rope3_Seg03]
36 139.999924 -0.000119 0.000119 1.630728 4.805783 -45.336792 139.999924
37 139.999924 -0.000119 0.000119 -3.334070 2.089716 -37.452599 139.999924
[Rope3_Seg04]
36 139.999924 0.000119 0.000000 -12.823296 1.903164 -36.745369 139.999924
37 139.999924 0.000119 0.000000 -8.523560 -0.753911 -24.069422 139.999924
[Rope3_Seg05]
36 139.999924 -0.000238 0.000060 -19.893024 5.998535 -21.027205 139.999924
37 139.999924 -0.000238 0.000060 -14.675839 -1.516536 -21.120279 139.999924
[Rope3_Seg06]
36 139.999893 -0.000119 -0.000060 -15.307425 6.931119 -9.923512 139.999893
37 139.999893 -0.000119 -0.000060 -15.150753 2.149981 -10.186961 139.999893
[Rope3_Seg07]
36 139.999771 0.000060 -0.000119 -7.631155 4.484381 -3.820046 139.999771
37 139.999771 0.000060 -0.000119 -10.823877 2.630177 -4.795496 139.999771
[Rope3_Seg08]
36 139.999985 -0.000060 0.000000 -3.884953 2.713950 -1.753636 139.999985
37 139.999985 -0.000060 0.000000 -6.613316 1.969463 -2.391430 139.999985
[Rope3_Seg09]
36 90.185997 -0.000179 -0.000060 89.793228 -1.359877 -0.847183 90.185997
37 90.185997 -0.000179 -0.000060 89.793228 -1.359877 -0.847183 90.185997
[R_rear_hand01]
36 103.366196 -6.073594 -10.757982 172.856537 -15.220671 -75.434441 104.101845
37 103.366196 -6.073594 -10.757982 172.856537 -15.220671 -75.434441 104.101845
[R_rear_hand02]
36 100.509819 12.039542 -7.992327 -12.874829 36.868488 72.167213 101.543350
37 100.509819 12.039542 -7.992327 -12.874829 36.868488 72.167213 101.543350
[R_rear_hand03]
36 101.539970 5.215704 5.435467 71.484581 -71.816628 21.513813 101.819031
37 101.539970 5.215704 5.435467 71.484581 -71.816628 21.513813 101.819031
[Rope4_Seg01]
36 -0.000019 -0.000194 -0.000153 -144.019287 -25.015509 -27.357130 0.000248
37 -0.000019 -0.000200 -0.000153 -168.697632 -51.348740 -35.367455 0.000252
[Rope4_Seg02]
36 139.999985 0.000060 0.000119 -46.672657 33.431477 -24.680115 139.999985
37 139.999985 0.000060 0.000119 -2.742857 38.418797 7.540260 139.999985
[Rope4_Seg03]
36 139.999924 0.000000 -0.000238 2.382890 64.110687 8.870416 139.999924
37 139.999924 0.000000 -0.000238 4.538216 40.599640 7.541046 139.999924
[Rope4_Seg04]
36 139.999985 0.000000 0.000119 2.124641 14.339074 3.988832 139.999985
37 139.999985 0.000000 0.000119 -0.127618 13.105283 7.724065 139.999985
[Rope4_Seg05]
36 139.999802 -0.000060 -0.000119 -1.031600 10.946528 6.922839 139.999802
37 139.999802 -0.000060 -0.000119 -10.787786 6.614550 13.383621 139.999802
[Rope4_Seg06]
36 139.999924 0.000000 0.000060 -2.611621 10.643141 6.987192 139.999924
37 139.999924 0.000000 0.000060 -10.865758 3.919426 9.203877 139.999924
[Rope4_Seg07]
36 139.999802 0.000000 0.000000 -3.021409 7.268970 4.649549 139.999802
37 139.999802 0.000000 0.000000 -10.015058 1.742504 6.411594 139.999802
[Rope4_Seg08]
36 139.999924 0.000000 0.000119 -5.777399 4.367708 3.156400 139.999924
37 139.999924 0.000000 0.000119 -9.205125 0.363536 4.061714 139.999924
[Rope4_Seg09]
36 90.185791 0.000060 0.000060 -135.617828 2.228885 0.850567 90.185791
37 90.185791 0.000060 0.000060 -135.617828 2.228885 0.850567 90.185791
[L_rear_hand01]
36 101.696655 -8.392275 -7.654577 -12.874829 -36.868488 107.832764 102.329041
37 101.696655 -8.392275 -7.654577 -12.874829 -36.868488 107.832764 102.329041
[L_rear_hand02]
36 102.726799 -1.568258 5.773216 71.484581 71.816643 158.486160 102.900848
37 102.726799 -1.568258 5.773216 71.484581 71.816628 158.486160 102.900848
[L_rear_hand03]
36 104.552910 9.721220 -10.420293 -177.714203 -24.565960 -106.089035 105.519653
37 104.552910 9.721220 -10.420293 -177.714203 -24.565960 -106.089035 105.519653
